<svg width="2796" height="929" viewBox="0 0 2796 929" fill="none" xmlns="http://www.w3.org/2000/svg">
<path d="M2 36.4822C224 208.482 281.137 290.37 480.5 361.982C579 397.364 641.081 389.209 673.249 388.59C777.736 386.581 877.858 345.353 971.882 303.095C1010.24 285.857 1047.76 266.906 1083.94 245.466C1107.85 231.301 1142.81 211.552 1148.67 181.045C1150.99 168.943 1132.3 168.806 1124.89 171.257C1111.38 175.73 1098.95 187.801 1088.84 196.925C1069.71 214.198 1051.78 232.874 1035.6 252.956C1001.88 294.839 967.57 353.203 1001.45 404.97C1018.73 431.385 1045.39 450.664 1073.56 464.097C1129.74 490.888 1192.76 502.839 1254.34 508.243C1418.77 522.675 1583.3 504.782 1737.34 444.621C1817.1 413.473 1895.89 374.082 1961.57 318.376C2010.13 277.19 2064.37 221.828 2072.23 155.476C2083.16 63.2891 1978.19 19.4138 1902.94 7.05806C1841.53 -3.02628 1779.19 2.89395 1718.87 16.6463C1640.61 34.4857 1569.86 64.316 1504.63 111.03C1374.63 204.123 1269.68 339.443 1232.16 496.857C1216.52 562.483 1215.52 635.067 1237.66 699.409C1259.11 761.746 1306.85 809.984 1361.7 844.331C1426.82 885.105 1498.86 906.471 1574.54 917.541C1675.02 932.237 1777.36 929.774 1877.57 914.545C2053.74 887.772 2230.3 826.113 2382.75 733.467C2485.97 670.742 2582.05 599.317 2662.81 509.042C2680.51 489.25 2694.62 468.167 2706.55 444.521C2850.11 159.982 2773.5 72.9537 2773.5 67.4822" stroke="#AD28EB" stroke-width="4" stroke-linecap="round"/>
</svg>
